<mxfile host="65bd71144e">
    <diagram id="QYowPjIThc93Avb0dmg9" name="Full design">
        <mxGraphModel dx="5800" dy="3945" grid="1" gridSize="10" guides="1" tooltips="1" connect="1" arrows="1" fold="1" page="1" pageScale="1" pageWidth="850" pageHeight="1100" math="0" shadow="0">
            <root>
                <mxCell id="0"/>
                <mxCell id="1" parent="0"/>
                <mxCell id="48" style="edgeStyle=none;html=1;fontSize=16;entryX=0;entryY=0.651;entryDx=0;entryDy=0;entryPerimeter=0;exitX=1;exitY=0.25;exitDx=0;exitDy=0;" parent="1" source="3" target="43" edge="1">
                    <mxGeometry relative="1" as="geometry">
                        <mxPoint x="800" y="260" as="targetPoint"/>
                    </mxGeometry>
                </mxCell>
                <mxCell id="49" value="RegSrc 16-bits" style="edgeLabel;html=1;align=center;verticalAlign=middle;resizable=0;points=[];fontSize=16;" parent="48" vertex="1" connectable="0">
                    <mxGeometry x="-0.1788" y="-1" relative="1" as="geometry">
                        <mxPoint x="10" y="-1" as="offset"/>
                    </mxGeometry>
                </mxCell>
                <mxCell id="3" value="&lt;font style=&quot;font-size: 16px&quot;&gt;Register File&lt;/font&gt;" style="rounded=0;whiteSpace=wrap;html=1;" parent="1" vertex="1">
                    <mxGeometry x="530" y="215" width="120" height="90" as="geometry"/>
                </mxCell>
                <mxCell id="36" style="edgeStyle=none;html=1;entryX=0;entryY=0.5;entryDx=0;entryDy=0;fontSize=16;exitX=1.056;exitY=0.809;exitDx=0;exitDy=0;exitPerimeter=0;" parent="1" source="5" edge="1">
                    <mxGeometry relative="1" as="geometry">
                        <mxPoint x="520" y="-80" as="targetPoint"/>
                        <Array as="points">
                            <mxPoint x="320" y="360"/>
                            <mxPoint x="320" y="240"/>
                            <mxPoint x="320" y="-30"/>
                            <mxPoint x="320" y="-80"/>
                        </Array>
                    </mxGeometry>
                </mxCell>
                <mxCell id="37" value="OpCode 5-bits" style="edgeLabel;html=1;align=center;verticalAlign=middle;resizable=0;points=[];fontSize=16;" parent="36" vertex="1" connectable="0">
                    <mxGeometry x="0.7437" y="-1" relative="1" as="geometry">
                        <mxPoint as="offset"/>
                    </mxGeometry>
                </mxCell>
                <mxCell id="38" style="edgeStyle=none;html=1;entryX=0.003;entryY=0.156;entryDx=0;entryDy=0;entryPerimeter=0;fontSize=16;" parent="1" target="3" edge="1">
                    <mxGeometry relative="1" as="geometry">
                        <mxPoint x="240" y="360" as="sourcePoint"/>
                        <Array as="points">
                            <mxPoint x="320" y="360"/>
                            <mxPoint x="320" y="229"/>
                            <mxPoint x="330" y="229"/>
                            <mxPoint x="340" y="229"/>
                        </Array>
                    </mxGeometry>
                </mxCell>
                <mxCell id="39" value="RegSrc Address 3-btis" style="edgeLabel;html=1;align=center;verticalAlign=middle;resizable=0;points=[];fontSize=16;" parent="38" vertex="1" connectable="0">
                    <mxGeometry x="0.6812" y="1" relative="1" as="geometry">
                        <mxPoint x="-45" as="offset"/>
                    </mxGeometry>
                </mxCell>
                <mxCell id="44" style="edgeStyle=none;html=1;fontSize=16;exitX=1.04;exitY=0.891;exitDx=0;exitDy=0;exitPerimeter=0;" parent="1" source="5" edge="1">
                    <mxGeometry relative="1" as="geometry">
                        <mxPoint x="809" y="402" as="targetPoint"/>
                    </mxGeometry>
                </mxCell>
                <mxCell id="45" value="&lt;span style=&quot;background-color: rgb(248 , 249 , 250)&quot;&gt;&lt;font style=&quot;font-size: 16px&quot;&gt;immediate 16-bits&lt;/font&gt;&lt;/span&gt;" style="edgeLabel;html=1;align=center;verticalAlign=middle;resizable=0;points=[];fontSize=16;" parent="44" vertex="1" connectable="0">
                    <mxGeometry x="-0.1099" y="1" relative="1" as="geometry">
                        <mxPoint x="-48" y="-4" as="offset"/>
                    </mxGeometry>
                </mxCell>
                <mxCell id="72" style="edgeStyle=none;html=1;entryX=0;entryY=0.611;entryDx=0;entryDy=0;fontSize=16;exitX=1;exitY=0.81;exitDx=0;exitDy=0;exitPerimeter=0;entryPerimeter=0;" parent="1" source="5" target="3" edge="1">
                    <mxGeometry relative="1" as="geometry">
                        <Array as="points">
                            <mxPoint x="320" y="361"/>
                            <mxPoint x="320" y="270"/>
                        </Array>
                    </mxGeometry>
                </mxCell>
                <mxCell id="73" value="RegDst Address 3-bits" style="edgeLabel;html=1;align=center;verticalAlign=middle;resizable=0;points=[];fontSize=16;" parent="72" vertex="1" connectable="0">
                    <mxGeometry x="0.552" y="-2" relative="1" as="geometry">
                        <mxPoint x="-25" y="-2" as="offset"/>
                    </mxGeometry>
                </mxCell>
                <mxCell id="5" value="&lt;font style=&quot;font-size: 15px&quot;&gt;IF/ID&lt;br&gt;Buffer&lt;br&gt;&lt;/font&gt;" style="rounded=0;whiteSpace=wrap;html=1;" parent="1" vertex="1">
                    <mxGeometry x="180" y="-20" width="50" height="470" as="geometry"/>
                </mxCell>
                <mxCell id="11" style="edgeStyle=none;html=1;entryX=0;entryY=0.5;entryDx=0;entryDy=0;startArrow=none;" parent="1" source="12" target="10" edge="1">
                    <mxGeometry relative="1" as="geometry">
                        <Array as="points"/>
                    </mxGeometry>
                </mxCell>
                <mxCell id="26" style="edgeStyle=none;html=1;entryX=0.02;entryY=0.36;entryDx=0;entryDy=0;entryPerimeter=0;fontSize=15;" parent="1" source="9" target="25" edge="1">
                    <mxGeometry relative="1" as="geometry"/>
                </mxCell>
                <mxCell id="9" value="&lt;font style=&quot;font-size: 16px&quot;&gt;PC&lt;/font&gt;" style="rounded=0;whiteSpace=wrap;html=1;" parent="1" vertex="1">
                    <mxGeometry x="-340" width="100" height="60" as="geometry"/>
                </mxCell>
                <mxCell id="14" style="edgeStyle=none;html=1;fontSize=16;startArrow=none;" parent="1" source="15" edge="1">
                    <mxGeometry relative="1" as="geometry">
                        <mxPoint x="180" y="395" as="targetPoint"/>
                    </mxGeometry>
                </mxCell>
                <mxCell id="16" style="edgeStyle=none;html=1;fontSize=16;exitX=1.02;exitY=0.35;exitDx=0;exitDy=0;exitPerimeter=0;startArrow=none;entryX=-0.032;entryY=0.801;entryDx=0;entryDy=0;entryPerimeter=0;" parent="1" source="19" target="5" edge="1">
                    <mxGeometry relative="1" as="geometry">
                        <mxPoint x="180" y="361" as="targetPoint"/>
                    </mxGeometry>
                </mxCell>
                <mxCell id="10" value="&lt;font style=&quot;font-size: 16px&quot;&gt;Instruction Memory&lt;/font&gt;" style="rounded=0;whiteSpace=wrap;html=1;" parent="1" vertex="1">
                    <mxGeometry x="-120" y="280" width="120" height="230" as="geometry"/>
                </mxCell>
                <mxCell id="19" value="&lt;font style=&quot;font-size: 14px&quot;&gt;Instruction 16-bits&lt;br&gt;&lt;/font&gt;" style="text;html=1;resizable=0;autosize=1;align=center;verticalAlign=middle;points=[];fillColor=none;strokeColor=none;rounded=0;" parent="1" vertex="1">
                    <mxGeometry x="25" y="350" width="130" height="20" as="geometry"/>
                </mxCell>
                <mxCell id="21" value="" style="edgeStyle=none;html=1;fontSize=16;exitX=1.02;exitY=0.35;exitDx=0;exitDy=0;exitPerimeter=0;endArrow=none;" parent="1" source="10" target="19" edge="1">
                    <mxGeometry relative="1" as="geometry">
                        <mxPoint x="2.400000000000091" y="360.5" as="sourcePoint"/>
                        <mxPoint x="180" y="361" as="targetPoint"/>
                    </mxGeometry>
                </mxCell>
                <mxCell id="15" value="&lt;font style=&quot;font-size: 14px&quot;&gt;immediate 16-bits&lt;/font&gt;" style="text;html=1;resizable=0;autosize=1;align=center;verticalAlign=middle;points=[];fillColor=none;strokeColor=none;rounded=0;" parent="1" vertex="1">
                    <mxGeometry x="25" y="385" width="130" height="20" as="geometry"/>
                </mxCell>
                <mxCell id="22" value="" style="edgeStyle=none;html=1;fontSize=16;endArrow=none;" parent="1" source="10" target="15" edge="1">
                    <mxGeometry relative="1" as="geometry">
                        <mxPoint y="395" as="sourcePoint"/>
                        <mxPoint x="180" y="395" as="targetPoint"/>
                    </mxGeometry>
                </mxCell>
                <mxCell id="12" value="&lt;font style=&quot;font-size: 14px&quot;&gt;32-bits&lt;/font&gt;" style="text;html=1;resizable=0;autosize=1;align=center;verticalAlign=middle;points=[];fillColor=none;strokeColor=none;rounded=0;" parent="1" vertex="1">
                    <mxGeometry x="-250" y="385" width="60" height="20" as="geometry"/>
                </mxCell>
                <mxCell id="23" value="" style="edgeStyle=none;html=1;entryX=0;entryY=0.5;entryDx=0;entryDy=0;endArrow=none;" parent="1" source="9" target="12" edge="1">
                    <mxGeometry relative="1" as="geometry">
                        <Array as="points">
                            <mxPoint x="-290" y="395"/>
                        </Array>
                        <mxPoint x="-290" y="290" as="sourcePoint"/>
                        <mxPoint x="-120" y="395" as="targetPoint"/>
                    </mxGeometry>
                </mxCell>
                <mxCell id="29" style="edgeStyle=none;html=1;entryX=-0.08;entryY=0.118;entryDx=0;entryDy=0;entryPerimeter=0;fontSize=16;" parent="1" source="25" target="5" edge="1">
                    <mxGeometry relative="1" as="geometry"/>
                </mxCell>
                <mxCell id="30" value="Next Pc 32-bits" style="edgeLabel;html=1;align=center;verticalAlign=middle;resizable=0;points=[];fontSize=16;" parent="29" vertex="1" connectable="0">
                    <mxGeometry x="-0.1673" relative="1" as="geometry">
                        <mxPoint as="offset"/>
                    </mxGeometry>
                </mxCell>
                <mxCell id="25" value="Adder" style="triangle;whiteSpace=wrap;html=1;fontSize=15;" parent="1" vertex="1">
                    <mxGeometry x="-120" width="70" height="80" as="geometry"/>
                </mxCell>
                <mxCell id="28" style="edgeStyle=none;html=1;entryX=0;entryY=0.75;entryDx=0;entryDy=0;fontSize=15;" parent="1" source="27" target="25" edge="1">
                    <mxGeometry relative="1" as="geometry"/>
                </mxCell>
                <mxCell id="27" value="&lt;font style=&quot;font-size: 16px&quot;&gt;2&lt;/font&gt;" style="text;html=1;resizable=0;autosize=1;align=center;verticalAlign=middle;points=[];fillColor=none;strokeColor=none;rounded=0;fontSize=15;" parent="1" vertex="1">
                    <mxGeometry x="-180" y="50" width="20" height="20" as="geometry"/>
                </mxCell>
                <mxCell id="33" style="edgeStyle=none;html=1;entryX=0;entryY=0.5;entryDx=0;entryDy=0;fontSize=16;" parent="1" source="32" target="9" edge="1">
                    <mxGeometry relative="1" as="geometry"/>
                </mxCell>
                <mxCell id="34" value="32-bits" style="edgeLabel;html=1;align=center;verticalAlign=middle;resizable=0;points=[];fontSize=16;" parent="33" vertex="1" connectable="0">
                    <mxGeometry x="-0.2988" y="-1" relative="1" as="geometry">
                        <mxPoint as="offset"/>
                    </mxGeometry>
                </mxCell>
                <mxCell id="32" value="MUX" style="shape=trapezoid;perimeter=trapezoidPerimeter;whiteSpace=wrap;html=1;fixedSize=1;fontSize=16;direction=south;" parent="1" vertex="1">
                    <mxGeometry x="-510" y="-35" width="70" height="130" as="geometry"/>
                </mxCell>
                <mxCell id="76" style="edgeStyle=none;html=1;fontSize=16;exitX=1.048;exitY=0.657;exitDx=0;exitDy=0;exitPerimeter=0;entryX=0.25;entryY=1;entryDx=0;entryDy=0;" parent="1" target="235" edge="1">
                    <mxGeometry relative="1" as="geometry">
                        <mxPoint x="860.0000000000001" y="239.44499999999996" as="sourcePoint"/>
                        <mxPoint x="1060" y="239.53" as="targetPoint"/>
                    </mxGeometry>
                </mxCell>
                <mxCell id="77" value="RegSrc 16-bits" style="edgeLabel;html=1;align=center;verticalAlign=middle;resizable=0;points=[];fontSize=16;" parent="76" vertex="1" connectable="0">
                    <mxGeometry x="-0.2224" y="-1" relative="1" as="geometry">
                        <mxPoint x="-107" as="offset"/>
                    </mxGeometry>
                </mxCell>
                <mxCell id="85" style="edgeStyle=none;html=1;entryX=0.111;entryY=1.006;entryDx=0;entryDy=0;fontSize=16;exitX=1.08;exitY=0.727;exitDx=0;exitDy=0;exitPerimeter=0;entryPerimeter=0;" parent="1" target="83" edge="1">
                    <mxGeometry relative="1" as="geometry">
                        <mxPoint x="861.6" y="277.56500000000005" as="sourcePoint"/>
                    </mxGeometry>
                </mxCell>
                <mxCell id="86" value="RegDst 16-bits" style="edgeLabel;html=1;align=center;verticalAlign=middle;resizable=0;points=[];fontSize=16;" parent="85" vertex="1" connectable="0">
                    <mxGeometry x="-0.1851" y="-1" relative="1" as="geometry">
                        <mxPoint x="18" as="offset"/>
                    </mxGeometry>
                </mxCell>
                <mxCell id="231" style="edgeStyle=none;html=1;entryX=0;entryY=0.5;entryDx=0;entryDy=0;" parent="1" target="43" edge="1">
                    <mxGeometry relative="1" as="geometry">
                        <mxPoint x="770" y="140" as="targetPoint"/>
                        <mxPoint x="510" y="230" as="sourcePoint"/>
                        <Array as="points">
                            <mxPoint x="510" y="148"/>
                        </Array>
                    </mxGeometry>
                </mxCell>
                <mxCell id="232" style="edgeStyle=none;html=1;exitX=1;exitY=0.5;exitDx=0;exitDy=0;entryX=1.006;entryY=0.122;entryDx=0;entryDy=0;entryPerimeter=0;" parent="1" source="43" target="227" edge="1">
                    <mxGeometry relative="1" as="geometry">
                        <Array as="points">
                            <mxPoint x="1230" y="148"/>
                            <mxPoint x="1230" y="430"/>
                            <mxPoint x="1580" y="440"/>
                            <mxPoint x="2160" y="440"/>
                            <mxPoint x="2160" y="497"/>
                        </Array>
                    </mxGeometry>
                </mxCell>
                <mxCell id="233" value="&lt;span style=&quot;font-size: 16px&quot;&gt;RegSrc Address 3-btis&lt;/span&gt;" style="edgeLabel;html=1;align=center;verticalAlign=middle;resizable=0;points=[];" parent="232" vertex="1" connectable="0">
                    <mxGeometry x="0.5691" y="3" relative="1" as="geometry">
                        <mxPoint as="offset"/>
                    </mxGeometry>
                </mxCell>
                <mxCell id="43" value="&lt;font style=&quot;font-size: 15px&quot;&gt;ID/EX&lt;br&gt;Buffer&lt;br&gt;&lt;/font&gt;" style="rounded=0;whiteSpace=wrap;html=1;" parent="1" vertex="1">
                    <mxGeometry x="810" y="-160" width="50" height="605" as="geometry"/>
                </mxCell>
                <mxCell id="52" style="edgeStyle=none;html=1;fontSize=16;entryX=-0.072;entryY=0.118;entryDx=0;entryDy=0;entryPerimeter=0;" parent="1" edge="1">
                    <mxGeometry relative="1" as="geometry">
                        <mxPoint x="810.0000000000001" y="-129.84999999999997" as="targetPoint"/>
                        <mxPoint x="644" y="-130" as="sourcePoint"/>
                    </mxGeometry>
                </mxCell>
                <mxCell id="53" value="RegWrite 1-bit" style="edgeLabel;html=1;align=center;verticalAlign=middle;resizable=0;points=[];fontSize=16;" parent="52" vertex="1" connectable="0">
                    <mxGeometry x="-0.3156" relative="1" as="geometry">
                        <mxPoint x="19" as="offset"/>
                    </mxGeometry>
                </mxCell>
                <mxCell id="54" style="edgeStyle=none;html=1;fontSize=16;entryX=-0.072;entryY=0.118;entryDx=0;entryDy=0;entryPerimeter=0;" parent="1" edge="1">
                    <mxGeometry relative="1" as="geometry">
                        <mxPoint x="806.4000000000001" y="-109.84999999999997" as="targetPoint"/>
                        <mxPoint x="640" y="-110.00434628975273" as="sourcePoint"/>
                    </mxGeometry>
                </mxCell>
                <mxCell id="55" value="MemRead&amp;nbsp;1-bit" style="edgeLabel;html=1;align=center;verticalAlign=middle;resizable=0;points=[];fontSize=16;" parent="54" vertex="1" connectable="0">
                    <mxGeometry x="-0.3156" relative="1" as="geometry">
                        <mxPoint x="23" as="offset"/>
                    </mxGeometry>
                </mxCell>
                <mxCell id="56" style="edgeStyle=none;html=1;fontSize=16;entryX=-0.072;entryY=0.118;entryDx=0;entryDy=0;entryPerimeter=0;" parent="1" edge="1">
                    <mxGeometry relative="1" as="geometry">
                        <mxPoint x="810.0000000000001" y="-89.84999999999997" as="targetPoint"/>
                        <mxPoint x="644" y="-90" as="sourcePoint"/>
                    </mxGeometry>
                </mxCell>
                <mxCell id="57" value="MemWrite&amp;nbsp;1-bit" style="edgeLabel;html=1;align=center;verticalAlign=middle;resizable=0;points=[];fontSize=16;" parent="56" vertex="1" connectable="0">
                    <mxGeometry x="-0.3156" relative="1" as="geometry">
                        <mxPoint x="19" as="offset"/>
                    </mxGeometry>
                </mxCell>
                <mxCell id="62" value="Control Unit" style="rounded=0;whiteSpace=wrap;html=1;fontSize=16;" parent="1" vertex="1">
                    <mxGeometry x="520" y="-140" width="120" height="220" as="geometry"/>
                </mxCell>
                <mxCell id="63" style="edgeStyle=none;html=1;fontSize=16;entryX=-0.072;entryY=0.118;entryDx=0;entryDy=0;entryPerimeter=0;" parent="1" edge="1">
                    <mxGeometry relative="1" as="geometry">
                        <mxPoint x="806.4000000000001" y="20.15000000000009" as="targetPoint"/>
                        <mxPoint x="640" y="19.995653710247325" as="sourcePoint"/>
                    </mxGeometry>
                </mxCell>
                <mxCell id="64" value="ALUControl 3-bits" style="edgeLabel;html=1;align=center;verticalAlign=middle;resizable=0;points=[];fontSize=16;" parent="63" vertex="1" connectable="0">
                    <mxGeometry x="-0.3156" relative="1" as="geometry">
                        <mxPoint x="19" as="offset"/>
                    </mxGeometry>
                </mxCell>
                <mxCell id="104" style="edgeStyle=none;html=1;entryX=0;entryY=0.25;entryDx=0;entryDy=0;entryPerimeter=0;fontSize=16;" parent="1" source="65" target="103" edge="1">
                    <mxGeometry relative="1" as="geometry"/>
                </mxCell>
                <mxCell id="106" value="Choosed Bit 1-bit" style="edgeLabel;html=1;align=center;verticalAlign=middle;resizable=0;points=[];fontSize=16;" parent="104" vertex="1" connectable="0">
                    <mxGeometry x="-0.2747" relative="1" as="geometry">
                        <mxPoint x="15" as="offset"/>
                    </mxGeometry>
                </mxCell>
                <mxCell id="65" value="&lt;font style=&quot;font-size: 18px&quot;&gt;Status Register&lt;/font&gt;" style="rounded=0;whiteSpace=wrap;html=1;fontSize=16;" parent="1" vertex="1">
                    <mxGeometry x="950" y="-320" width="120" height="60" as="geometry"/>
                </mxCell>
                <mxCell id="68" style="edgeStyle=none;html=1;fontSize=16;entryX=-0.072;entryY=0.118;entryDx=0;entryDy=0;entryPerimeter=0;" parent="1" edge="1">
                    <mxGeometry relative="1" as="geometry">
                        <mxPoint x="806.4000000000001" y="-69.84999999999991" as="targetPoint"/>
                        <mxPoint x="640" y="-70.00434628975268" as="sourcePoint"/>
                    </mxGeometry>
                </mxCell>
                <mxCell id="69" value="MemOrReg 1-bit" style="edgeLabel;html=1;align=center;verticalAlign=middle;resizable=0;points=[];fontSize=16;" parent="68" vertex="1" connectable="0">
                    <mxGeometry x="-0.3156" relative="1" as="geometry">
                        <mxPoint x="23" y="1" as="offset"/>
                    </mxGeometry>
                </mxCell>
                <mxCell id="70" style="edgeStyle=none;html=1;fontSize=16;entryX=-0.072;entryY=0.118;entryDx=0;entryDy=0;entryPerimeter=0;" parent="1" edge="1">
                    <mxGeometry relative="1" as="geometry">
                        <mxPoint x="806.4000000000001" y="-9.849999999999909" as="targetPoint"/>
                        <mxPoint x="640" y="-10.004346289752675" as="sourcePoint"/>
                    </mxGeometry>
                </mxCell>
                <mxCell id="71" value="ImmOrReg 1-bit" style="edgeLabel;html=1;align=center;verticalAlign=middle;resizable=0;points=[];fontSize=16;" parent="70" vertex="1" connectable="0">
                    <mxGeometry x="-0.3156" relative="1" as="geometry">
                        <mxPoint x="23" y="1" as="offset"/>
                    </mxGeometry>
                </mxCell>
                <mxCell id="184" style="edgeStyle=none;html=1;entryX=-0.071;entryY=0.714;entryDx=0;entryDy=0;entryPerimeter=0;fontSize=16;" parent="1" source="74" target="169" edge="1">
                    <mxGeometry relative="1" as="geometry"/>
                </mxCell>
                <mxCell id="220" value="ALU result 16-bits" style="edgeLabel;html=1;align=center;verticalAlign=middle;resizable=0;points=[];fontSize=16;" parent="184" vertex="1" connectable="0">
                    <mxGeometry x="0.2302" y="1" relative="1" as="geometry">
                        <mxPoint as="offset"/>
                    </mxGeometry>
                </mxCell>
                <mxCell id="74" value="ALU" style="triangle;whiteSpace=wrap;html=1;fontSize=16;" parent="1" vertex="1">
                    <mxGeometry x="2020" y="215" width="90" height="125" as="geometry"/>
                </mxCell>
                <mxCell id="80" value="" style="endArrow=classic;html=1;fontSize=16;entryX=-0.052;entryY=0.863;entryDx=0;entryDy=0;entryPerimeter=0;" parent="1" target="43" edge="1">
                    <mxGeometry width="50" height="50" relative="1" as="geometry">
                        <mxPoint x="500" y="270" as="sourcePoint"/>
                        <mxPoint x="640" y="280" as="targetPoint"/>
                        <Array as="points">
                            <mxPoint x="500" y="360"/>
                        </Array>
                    </mxGeometry>
                </mxCell>
                <mxCell id="81" style="edgeStyle=none;html=1;fontSize=16;entryX=0;entryY=0.651;entryDx=0;entryDy=0;entryPerimeter=0;" parent="1" edge="1">
                    <mxGeometry relative="1" as="geometry">
                        <mxPoint x="650" y="280" as="sourcePoint"/>
                        <mxPoint x="810" y="280.005" as="targetPoint"/>
                    </mxGeometry>
                </mxCell>
                <mxCell id="82" value="RegDst 16-bits" style="edgeLabel;html=1;align=center;verticalAlign=middle;resizable=0;points=[];fontSize=16;" parent="81" vertex="1" connectable="0">
                    <mxGeometry x="-0.1788" y="-1" relative="1" as="geometry">
                        <mxPoint x="1" y="-1" as="offset"/>
                    </mxGeometry>
                </mxCell>
                <mxCell id="84" value="" style="edgeStyle=none;html=1;fontSize=16;entryX=0;entryY=0.75;entryDx=0;entryDy=0;startArrow=none;exitX=0.5;exitY=0;exitDx=0;exitDy=0;" parent="1" source="250" target="74" edge="1">
                    <mxGeometry relative="1" as="geometry">
                        <mxPoint x="1277.6" y="330" as="targetPoint"/>
                        <mxPoint x="1410" y="303" as="sourcePoint"/>
                    </mxGeometry>
                </mxCell>
                <mxCell id="83" value="MUX" style="shape=trapezoid;perimeter=trapezoidPerimeter;whiteSpace=wrap;html=1;fixedSize=1;fontSize=16;direction=south;" parent="1" vertex="1">
                    <mxGeometry x="1150" y="265" width="70" height="75" as="geometry"/>
                </mxCell>
                <mxCell id="97" value="" style="endArrow=classic;html=1;fontSize=16;exitX=1.048;exitY=0.292;exitDx=0;exitDy=0;exitPerimeter=0;entryX=0.5;entryY=0;entryDx=0;entryDy=0;" parent="1" source="43" target="74" edge="1">
                    <mxGeometry width="50" height="50" relative="1" as="geometry">
                        <mxPoint x="940" y="140" as="sourcePoint"/>
                        <mxPoint x="990" y="90" as="targetPoint"/>
                        <Array as="points">
                            <mxPoint x="1313" y="24"/>
                            <mxPoint x="2065" y="20"/>
                        </Array>
                    </mxGeometry>
                </mxCell>
                <mxCell id="98" value="ALUControl 3-bits" style="edgeLabel;html=1;align=center;verticalAlign=middle;resizable=0;points=[];fontSize=16;" parent="97" vertex="1" connectable="0">
                    <mxGeometry x="-0.4475" y="-3" relative="1" as="geometry">
                        <mxPoint x="10" as="offset"/>
                    </mxGeometry>
                </mxCell>
                <mxCell id="99" value="" style="endArrow=classic;html=1;fontSize=16;exitX=1.048;exitY=0.235;exitDx=0;exitDy=0;exitPerimeter=0;entryX=0;entryY=0.5;entryDx=0;entryDy=0;" parent="1" source="43" target="83" edge="1">
                    <mxGeometry width="50" height="50" relative="1" as="geometry">
                        <mxPoint x="1020" y="130" as="sourcePoint"/>
                        <mxPoint x="1130" y="-10" as="targetPoint"/>
                        <Array as="points">
                            <mxPoint x="1185" y="-18"/>
                        </Array>
                    </mxGeometry>
                </mxCell>
                <mxCell id="101" value="ImmOrReg 1-bit" style="edgeLabel;html=1;align=center;verticalAlign=middle;resizable=0;points=[];fontSize=16;" parent="99" vertex="1" connectable="0">
                    <mxGeometry x="-0.6066" y="1" relative="1" as="geometry">
                        <mxPoint as="offset"/>
                    </mxGeometry>
                </mxCell>
                <mxCell id="105" style="edgeStyle=none;html=1;fontSize=16;entryX=0;entryY=0.5;entryDx=0;entryDy=0;exitX=1;exitY=0.5;exitDx=0;exitDy=0;exitPerimeter=0;" parent="1" source="103" target="32" edge="1">
                    <mxGeometry relative="1" as="geometry">
                        <mxPoint x="940" y="-310" as="targetPoint"/>
                        <mxPoint x="770" y="-470" as="sourcePoint"/>
                        <Array as="points">
                            <mxPoint x="350" y="-310"/>
                            <mxPoint x="-475" y="-310"/>
                        </Array>
                    </mxGeometry>
                </mxCell>
                <mxCell id="103" value="" style="shape=or;whiteSpace=wrap;html=1;fontSize=16;direction=west;" parent="1" vertex="1">
                    <mxGeometry x="450" y="-350" width="60" height="80" as="geometry"/>
                </mxCell>
                <mxCell id="108" value="" style="endArrow=classic;html=1;fontSize=16;" parent="1" edge="1">
                    <mxGeometry width="50" height="50" relative="1" as="geometry">
                        <mxPoint x="203.57" y="-310" as="sourcePoint"/>
                        <mxPoint x="203.57" y="-20" as="targetPoint"/>
                    </mxGeometry>
                </mxCell>
                <mxCell id="109" value="Flush (Insert NOP)" style="edgeLabel;html=1;align=center;verticalAlign=middle;resizable=0;points=[];fontSize=16;" parent="108" vertex="1" connectable="0">
                    <mxGeometry x="-0.0879" y="7" relative="1" as="geometry">
                        <mxPoint y="6" as="offset"/>
                    </mxGeometry>
                </mxCell>
                <mxCell id="113" value="" style="endArrow=classic;html=1;fontSize=16;exitX=0.75;exitY=0;exitDx=0;exitDy=0;entryX=0;entryY=0.75;entryDx=0;entryDy=0;entryPerimeter=0;" parent="1" source="62" target="103" edge="1">
                    <mxGeometry width="50" height="50" relative="1" as="geometry">
                        <mxPoint x="370" y="-130" as="sourcePoint"/>
                        <mxPoint x="420" y="-180" as="targetPoint"/>
                        <Array as="points">
                            <mxPoint x="610" y="-330"/>
                        </Array>
                    </mxGeometry>
                </mxCell>
                <mxCell id="114" value="BranchFlag 1-bit" style="edgeLabel;html=1;align=center;verticalAlign=middle;resizable=0;points=[];fontSize=16;" parent="113" vertex="1" connectable="0">
                    <mxGeometry x="-0.5033" y="2" relative="1" as="geometry">
                        <mxPoint as="offset"/>
                    </mxGeometry>
                </mxCell>
                <mxCell id="119" value="" style="endArrow=classic;html=1;fontSize=16;exitX=0.856;exitY=0.415;exitDx=0;exitDy=0;exitPerimeter=0;entryX=1;entryY=0.5;entryDx=0;entryDy=0;" parent="1" source="74" target="65" edge="1">
                    <mxGeometry width="50" height="50" relative="1" as="geometry">
                        <mxPoint x="940" y="-70" as="sourcePoint"/>
                        <mxPoint x="1267.6" y="-257.5" as="targetPoint"/>
                        <Array as="points">
                            <mxPoint x="2097" y="-290"/>
                            <mxPoint x="1350" y="-295"/>
                        </Array>
                    </mxGeometry>
                </mxCell>
                <mxCell id="120" value="Updated Status 3-bits" style="edgeLabel;html=1;align=center;verticalAlign=middle;resizable=0;points=[];fontSize=16;" parent="119" vertex="1" connectable="0">
                    <mxGeometry x="0.4158" y="-2" relative="1" as="geometry">
                        <mxPoint x="-100" y="2" as="offset"/>
                    </mxGeometry>
                </mxCell>
                <mxCell id="124" style="edgeStyle=none;html=1;fontSize=16;entryX=-0.072;entryY=0.118;entryDx=0;entryDy=0;entryPerimeter=0;" parent="1" edge="1">
                    <mxGeometry relative="1" as="geometry">
                        <mxPoint x="810.0000000000001" y="-39.84999999999968" as="targetPoint"/>
                        <mxPoint x="643.6" y="-40.004346289752675" as="sourcePoint"/>
                    </mxGeometry>
                </mxCell>
                <mxCell id="125" value="UpdateStatus 1-bit" style="edgeLabel;html=1;align=center;verticalAlign=middle;resizable=0;points=[];fontSize=16;" parent="124" vertex="1" connectable="0">
                    <mxGeometry x="-0.3156" relative="1" as="geometry">
                        <mxPoint x="23" y="1" as="offset"/>
                    </mxGeometry>
                </mxCell>
                <mxCell id="126" value="" style="endArrow=classic;html=1;fontSize=16;exitX=1.008;exitY=0.191;exitDx=0;exitDy=0;exitPerimeter=0;entryX=0.75;entryY=1;entryDx=0;entryDy=0;" parent="1" source="43" target="65" edge="1">
                    <mxGeometry width="50" height="50" relative="1" as="geometry">
                        <mxPoint x="940" y="-120" as="sourcePoint"/>
                        <mxPoint x="1232.6" y="-230" as="targetPoint"/>
                        <Array as="points">
                            <mxPoint x="1040" y="-40"/>
                        </Array>
                    </mxGeometry>
                </mxCell>
                <mxCell id="127" value="UpdateStatus 1-bit" style="edgeLabel;html=1;align=center;verticalAlign=middle;resizable=0;points=[];fontSize=16;" parent="126" vertex="1" connectable="0">
                    <mxGeometry x="0.5552" relative="1" as="geometry">
                        <mxPoint y="-48" as="offset"/>
                    </mxGeometry>
                </mxCell>
                <mxCell id="145" style="edgeStyle=none;html=1;exitX=1;exitY=0.5;exitDx=0;exitDy=0;entryX=0.25;entryY=1;entryDx=0;entryDy=0;" parent="1" source="128" edge="1">
                    <mxGeometry relative="1" as="geometry">
                        <Array as="points">
                            <mxPoint y="680"/>
                        </Array>
                        <mxPoint x="-110" y="677.5" as="targetPoint"/>
                    </mxGeometry>
                </mxCell>
                <mxCell id="128" value="&lt;font style=&quot;font-size: 13px&quot;&gt;Extend zeros&lt;/font&gt;" style="shape=step;perimeter=stepPerimeter;whiteSpace=wrap;html=1;fixedSize=1;direction=west;" parent="1" vertex="1">
                    <mxGeometry x="20" y="640" width="120" height="80" as="geometry"/>
                </mxCell>
                <mxCell id="129" value="" style="endArrow=none;html=1;fontSize=16;entryX=0;entryY=0.5;entryDx=0;entryDy=0;" parent="1" target="128" edge="1">
                    <mxGeometry width="50" height="50" relative="1" as="geometry">
                        <mxPoint x="790" y="280" as="sourcePoint"/>
                        <mxPoint x="-512.6599999999999" y="70.03999999999996" as="targetPoint"/>
                        <Array as="points">
                            <mxPoint x="790" y="640"/>
                            <mxPoint x="790" y="680"/>
                        </Array>
                    </mxGeometry>
                </mxCell>
                <mxCell id="130" value="16-bits" style="edgeLabel;html=1;align=center;verticalAlign=middle;resizable=0;points=[];fontSize=16;" parent="129" connectable="0" vertex="1">
                    <mxGeometry x="0.5315" y="3" relative="1" as="geometry">
                        <mxPoint x="-1" as="offset"/>
                    </mxGeometry>
                </mxCell>
                <mxCell id="144" style="edgeStyle=none;html=1;exitX=0.5;exitY=0;exitDx=0;exitDy=0;entryX=0.75;entryY=1;entryDx=0;entryDy=0;" parent="1" target="32" edge="1">
                    <mxGeometry relative="1" as="geometry">
                        <Array as="points">
                            <mxPoint x="-600" y="640"/>
                            <mxPoint x="-600" y="60"/>
                        </Array>
                        <mxPoint x="-180" y="645" as="sourcePoint"/>
                    </mxGeometry>
                </mxCell>
                <mxCell id="151" style="edgeStyle=none;html=1;entryX=0.75;entryY=1;entryDx=0;entryDy=0;" parent="1" edge="1">
                    <mxGeometry relative="1" as="geometry">
                        <Array as="points">
                            <mxPoint x="610" y="613"/>
                        </Array>
                        <mxPoint x="610" y="330" as="sourcePoint"/>
                        <mxPoint x="-110" y="612.5" as="targetPoint"/>
                    </mxGeometry>
                </mxCell>
                <mxCell id="221" value="privateResult 32-bits" style="edgeLabel;html=1;align=center;verticalAlign=middle;resizable=0;points=[];fontSize=16;" parent="151" vertex="1" connectable="0">
                    <mxGeometry x="0.1064" y="5" relative="1" as="geometry">
                        <mxPoint x="-1" as="offset"/>
                    </mxGeometry>
                </mxCell>
                <mxCell id="150" value="&lt;font style=&quot;font-size: 16px&quot;&gt;privateReg[2]&lt;/font&gt;" style="rounded=0;whiteSpace=wrap;html=1;" parent="1" vertex="1">
                    <mxGeometry x="530" y="305" width="120" height="25" as="geometry"/>
                </mxCell>
                <mxCell id="153" style="edgeStyle=none;html=1;fontSize=16;entryX=1;entryY=0.5;entryDx=0;entryDy=0;" parent="1" edge="1">
                    <mxGeometry relative="1" as="geometry">
                        <mxPoint x="-140" y="590.76" as="targetPoint"/>
                        <mxPoint x="640" y="70" as="sourcePoint"/>
                        <Array as="points">
                            <mxPoint x="685" y="70"/>
                            <mxPoint x="685" y="540"/>
                            <mxPoint x="-140" y="540"/>
                        </Array>
                    </mxGeometry>
                </mxCell>
                <mxCell id="154" value="DestOrPrivate 1-bit" style="edgeLabel;html=1;align=center;verticalAlign=middle;resizable=0;points=[];fontSize=16;" parent="153" connectable="0" vertex="1">
                    <mxGeometry x="-0.3156" relative="1" as="geometry">
                        <mxPoint x="23" y="1" as="offset"/>
                    </mxGeometry>
                </mxCell>
                <mxCell id="163" value="" style="endArrow=classic;html=1;fontSize=16;entryX=0.342;entryY=-0.001;entryDx=0;entryDy=0;entryPerimeter=0;" parent="1" target="65" edge="1">
                    <mxGeometry width="50" height="50" relative="1" as="geometry">
                        <mxPoint x="320" y="-70" as="sourcePoint"/>
                        <mxPoint x="960" y="-110" as="targetPoint"/>
                        <Array as="points">
                            <mxPoint x="320" y="-440"/>
                            <mxPoint x="991" y="-440"/>
                        </Array>
                    </mxGeometry>
                </mxCell>
                <mxCell id="164" value="2-bits from function code" style="edgeLabel;html=1;align=center;verticalAlign=middle;resizable=0;points=[];fontSize=16;" parent="163" vertex="1" connectable="0">
                    <mxGeometry x="0.1136" y="1" relative="1" as="geometry">
                        <mxPoint as="offset"/>
                    </mxGeometry>
                </mxCell>
                <mxCell id="167" value="MUX" style="shape=trapezoid;perimeter=trapezoidPerimeter;whiteSpace=wrap;html=1;fixedSize=1;fontSize=16;direction=north;" parent="1" vertex="1">
                    <mxGeometry x="-180" y="590" width="70" height="130" as="geometry"/>
                </mxCell>
                <mxCell id="169" value="&lt;font style=&quot;font-size: 15px&quot;&gt;EX/MEM&lt;br&gt;Buffer&lt;br&gt;&lt;/font&gt;" style="rounded=0;whiteSpace=wrap;html=1;" parent="1" vertex="1">
                    <mxGeometry x="2460" y="-150" width="70" height="595" as="geometry"/>
                </mxCell>
                <mxCell id="211" style="edgeStyle=none;html=1;entryX=0.25;entryY=1;entryDx=0;entryDy=0;fontSize=16;" parent="1" source="170" target="203" edge="1">
                    <mxGeometry relative="1" as="geometry"/>
                </mxCell>
                <mxCell id="170" value="&lt;font style=&quot;font-size: 15px&quot;&gt;MEM/WB&lt;br&gt;Buffer&lt;br&gt;&lt;/font&gt;" style="rounded=0;whiteSpace=wrap;html=1;" parent="1" vertex="1">
                    <mxGeometry x="3130" y="-150" width="70" height="595" as="geometry"/>
                </mxCell>
                <mxCell id="174" style="edgeStyle=none;html=1;fontSize=16;entryX=-0.061;entryY=0.028;entryDx=0;entryDy=0;entryPerimeter=0;" parent="1" target="169" edge="1">
                    <mxGeometry relative="1" as="geometry">
                        <mxPoint x="1026" y="-129.84999999999968" as="targetPoint"/>
                        <mxPoint x="860" y="-130" as="sourcePoint"/>
                    </mxGeometry>
                </mxCell>
                <mxCell id="175" value="RegWrite 1-bit" style="edgeLabel;html=1;align=center;verticalAlign=middle;resizable=0;points=[];fontSize=16;" parent="174" vertex="1" connectable="0">
                    <mxGeometry x="-0.3156" relative="1" as="geometry">
                        <mxPoint x="437" as="offset"/>
                    </mxGeometry>
                </mxCell>
                <mxCell id="176" style="edgeStyle=none;html=1;fontSize=16;entryX=-0.061;entryY=0.063;entryDx=0;entryDy=0;entryPerimeter=0;" parent="1" target="169" edge="1">
                    <mxGeometry relative="1" as="geometry">
                        <mxPoint x="1026.4" y="-109.84999999999968" as="targetPoint"/>
                        <mxPoint x="860" y="-110.00434628975268" as="sourcePoint"/>
                    </mxGeometry>
                </mxCell>
                <mxCell id="177" value="MemRead&amp;nbsp;1-bit" style="edgeLabel;html=1;align=center;verticalAlign=middle;resizable=0;points=[];fontSize=16;" parent="176" vertex="1" connectable="0">
                    <mxGeometry x="-0.3156" relative="1" as="geometry">
                        <mxPoint x="554" as="offset"/>
                    </mxGeometry>
                </mxCell>
                <mxCell id="179" style="edgeStyle=none;html=1;fontSize=16;entryX=-0.014;entryY=0.1;entryDx=0;entryDy=0;entryPerimeter=0;" parent="1" target="169" edge="1">
                    <mxGeometry relative="1" as="geometry">
                        <mxPoint x="1026" y="-89.84999999999991" as="targetPoint"/>
                        <mxPoint x="860" y="-89.99999999999977" as="sourcePoint"/>
                    </mxGeometry>
                </mxCell>
                <mxCell id="180" value="MemWrite&amp;nbsp;1-bit" style="edgeLabel;html=1;align=center;verticalAlign=middle;resizable=0;points=[];fontSize=16;" parent="179" vertex="1" connectable="0">
                    <mxGeometry x="-0.3156" relative="1" as="geometry">
                        <mxPoint x="426" as="offset"/>
                    </mxGeometry>
                </mxCell>
                <mxCell id="181" style="edgeStyle=none;html=1;fontSize=16;entryX=0;entryY=0.126;entryDx=0;entryDy=0;entryPerimeter=0;" parent="1" target="169" edge="1">
                    <mxGeometry relative="1" as="geometry">
                        <mxPoint x="1026.4" y="-69.84999999999991" as="targetPoint"/>
                        <mxPoint x="860" y="-70.00434628975268" as="sourcePoint"/>
                    </mxGeometry>
                </mxCell>
                <mxCell id="182" value="MemOrReg 1-bit" style="edgeLabel;html=1;align=center;verticalAlign=middle;resizable=0;points=[];fontSize=16;" parent="181" vertex="1" connectable="0">
                    <mxGeometry x="-0.3156" relative="1" as="geometry">
                        <mxPoint x="553" y="1" as="offset"/>
                    </mxGeometry>
                </mxCell>
                <mxCell id="208" style="edgeStyle=none;html=1;entryX=-0.014;entryY=0.487;entryDx=0;entryDy=0;entryPerimeter=0;fontSize=16;" parent="1" target="170" edge="1">
                    <mxGeometry relative="1" as="geometry">
                        <mxPoint x="3030" y="140" as="sourcePoint"/>
                    </mxGeometry>
                </mxCell>
                <mxCell id="210" value="Data 16-bits" style="edgeLabel;html=1;align=center;verticalAlign=middle;resizable=0;points=[];fontSize=16;" parent="208" vertex="1" connectable="0">
                    <mxGeometry x="-0.253" y="1" relative="1" as="geometry">
                        <mxPoint x="10" y="1" as="offset"/>
                    </mxGeometry>
                </mxCell>
                <mxCell id="183" value="&lt;font style=&quot;font-size: 16px&quot;&gt;Data Memory&lt;/font&gt;" style="rounded=0;whiteSpace=wrap;html=1;fontSize=13;" parent="1" vertex="1">
                    <mxGeometry x="2910" y="-54.99999999999999" width="120" height="290" as="geometry"/>
                </mxCell>
                <mxCell id="186" style="edgeStyle=none;html=1;fontSize=16;entryX=-0.071;entryY=0.852;entryDx=0;entryDy=0;entryPerimeter=0;" parent="1" target="169" edge="1">
                    <mxGeometry relative="1" as="geometry">
                        <mxPoint x="1016.4000000000001" y="359.5300000000001" as="targetPoint"/>
                        <mxPoint x="860" y="362" as="sourcePoint"/>
                    </mxGeometry>
                </mxCell>
                <mxCell id="187" value="RegDst Address 3-bits" style="edgeLabel;html=1;align=center;verticalAlign=middle;resizable=0;points=[];fontSize=16;" parent="186" vertex="1" connectable="0">
                    <mxGeometry x="-0.3156" relative="1" as="geometry">
                        <mxPoint x="409" y="-2" as="offset"/>
                    </mxGeometry>
                </mxCell>
                <mxCell id="190" value="" style="endArrow=classic;html=1;fontSize=16;exitX=1.02;exitY=0.941;exitDx=0;exitDy=0;exitPerimeter=0;entryX=0.65;entryY=1.057;entryDx=0;entryDy=0;entryPerimeter=0;" parent="1" source="43" target="83" edge="1">
                    <mxGeometry width="50" height="50" relative="1" as="geometry">
                        <mxPoint x="970" y="150" as="sourcePoint"/>
                        <mxPoint x="1020" y="100" as="targetPoint"/>
                        <Array as="points">
                            <mxPoint x="1110" y="410"/>
                            <mxPoint x="1110" y="319"/>
                        </Array>
                    </mxGeometry>
                </mxCell>
                <mxCell id="191" value="&lt;span style=&quot;background-color: rgb(248 , 249 , 250)&quot;&gt;immediate 16-bits&lt;/span&gt;" style="edgeLabel;html=1;align=center;verticalAlign=middle;resizable=0;points=[];fontSize=16;" parent="190" vertex="1" connectable="0">
                    <mxGeometry x="-0.4973" y="-3" relative="1" as="geometry">
                        <mxPoint x="-16" as="offset"/>
                    </mxGeometry>
                </mxCell>
                <mxCell id="192" style="edgeStyle=none;html=1;fontSize=16;entryX=-0.071;entryY=0.852;entryDx=0;entryDy=0;entryPerimeter=0;" parent="1" edge="1">
                    <mxGeometry relative="1" as="geometry">
                        <mxPoint x="3129.9999999999995" y="354.38000000000005" as="targetPoint"/>
                        <mxPoint x="2530" y="354" as="sourcePoint"/>
                    </mxGeometry>
                </mxCell>
                <mxCell id="193" value="RegDst Address 3-bits" style="edgeLabel;html=1;align=center;verticalAlign=middle;resizable=0;points=[];fontSize=16;" parent="192" vertex="1" connectable="0">
                    <mxGeometry x="-0.3156" relative="1" as="geometry">
                        <mxPoint x="295" y="1" as="offset"/>
                    </mxGeometry>
                </mxCell>
                <mxCell id="194" value="" style="endArrow=classic;html=1;fontSize=16;exitX=1.029;exitY=0.1;exitDx=0;exitDy=0;exitPerimeter=0;entryX=0.25;entryY=0;entryDx=0;entryDy=0;" parent="1" source="169" target="183" edge="1">
                    <mxGeometry width="50" height="50" relative="1" as="geometry">
                        <mxPoint x="2490" y="105" as="sourcePoint"/>
                        <mxPoint x="2710" y="-85" as="targetPoint"/>
                        <Array as="points">
                            <mxPoint x="2865" y="-90"/>
                            <mxPoint x="2940" y="-90"/>
                        </Array>
                    </mxGeometry>
                </mxCell>
                <mxCell id="195" value="MemWrite&amp;nbsp;1-bit" style="edgeLabel;html=1;align=center;verticalAlign=middle;resizable=0;points=[];fontSize=16;" parent="194" vertex="1" connectable="0">
                    <mxGeometry x="0.1701" y="-3" relative="1" as="geometry">
                        <mxPoint x="-121" y="-3" as="offset"/>
                    </mxGeometry>
                </mxCell>
                <mxCell id="196" value="" style="endArrow=classic;html=1;fontSize=16;entryX=0.5;entryY=0;entryDx=0;entryDy=0;exitX=1.014;exitY=0.058;exitDx=0;exitDy=0;exitPerimeter=0;" parent="1" source="169" target="183" edge="1">
                    <mxGeometry width="50" height="50" relative="1" as="geometry">
                        <mxPoint x="2540" y="-115" as="sourcePoint"/>
                        <mxPoint x="2540" y="55.00000000000001" as="targetPoint"/>
                        <Array as="points">
                            <mxPoint x="2895" y="-115"/>
                            <mxPoint x="2970" y="-115"/>
                        </Array>
                    </mxGeometry>
                </mxCell>
                <mxCell id="200" value="&lt;span style=&quot;font-family: &amp;#34;helvetica&amp;#34;&quot;&gt;MemRead&amp;nbsp;1-bit&lt;/span&gt;" style="edgeLabel;html=1;align=center;verticalAlign=middle;resizable=0;points=[];fontSize=16;" parent="196" vertex="1" connectable="0">
                    <mxGeometry x="0.2269" y="-2" relative="1" as="geometry">
                        <mxPoint x="-147" as="offset"/>
                    </mxGeometry>
                </mxCell>
                <mxCell id="201" value="" style="endArrow=classic;html=1;fontSize=16;exitX=1.043;exitY=0.124;exitDx=0;exitDy=0;exitPerimeter=0;entryX=0;entryY=0.124;entryDx=0;entryDy=0;entryPerimeter=0;" parent="1" source="169" target="170" edge="1">
                    <mxGeometry width="50" height="50" relative="1" as="geometry">
                        <mxPoint x="2720" y="105" as="sourcePoint"/>
                        <mxPoint x="2770" y="55.00000000000001" as="targetPoint"/>
                    </mxGeometry>
                </mxCell>
                <mxCell id="202" value="MemOrReg 1-bit" style="edgeLabel;html=1;align=center;verticalAlign=middle;resizable=0;points=[];fontSize=16;" parent="201" vertex="1" connectable="0">
                    <mxGeometry x="0.8132" y="-4" relative="1" as="geometry">
                        <mxPoint x="-24" y="-3" as="offset"/>
                    </mxGeometry>
                </mxCell>
                <mxCell id="212" style="edgeStyle=none;html=1;entryX=0.25;entryY=1;entryDx=0;entryDy=0;fontSize=16;" parent="1" source="203" target="150" edge="1">
                    <mxGeometry relative="1" as="geometry">
                        <Array as="points">
                            <mxPoint x="3400" y="163"/>
                            <mxPoint x="3410" y="760"/>
                            <mxPoint x="3390" y="760"/>
                            <mxPoint x="2570" y="760"/>
                            <mxPoint x="560" y="760"/>
                        </Array>
                    </mxGeometry>
                </mxCell>
                <mxCell id="213" value="Data to write in RegFile 16-bits" style="edgeLabel;html=1;align=center;verticalAlign=middle;resizable=0;points=[];fontSize=16;" parent="212" vertex="1" connectable="0">
                    <mxGeometry x="-0.7972" relative="1" as="geometry">
                        <mxPoint x="-6" y="88" as="offset"/>
                    </mxGeometry>
                </mxCell>
                <mxCell id="203" value="MUX" style="shape=trapezoid;perimeter=trapezoidPerimeter;whiteSpace=wrap;html=1;fixedSize=1;fontSize=16;direction=south;" parent="1" vertex="1">
                    <mxGeometry x="3280" y="124.99999999999999" width="70" height="75" as="geometry"/>
                </mxCell>
                <mxCell id="204" value="" style="endArrow=classic;html=1;fontSize=16;exitX=1;exitY=0.126;exitDx=0;exitDy=0;exitPerimeter=0;entryX=0;entryY=0.5;entryDx=0;entryDy=0;" parent="1" source="170" target="203" edge="1">
                    <mxGeometry width="50" height="50" relative="1" as="geometry">
                        <mxPoint x="3210" y="105" as="sourcePoint"/>
                        <mxPoint x="3260" y="55.00000000000001" as="targetPoint"/>
                        <Array as="points">
                            <mxPoint x="3315" y="-75"/>
                        </Array>
                    </mxGeometry>
                </mxCell>
                <mxCell id="205" value="MemOrReg 1-bit" style="edgeLabel;html=1;align=center;verticalAlign=middle;resizable=0;points=[];fontSize=16;" parent="204" vertex="1" connectable="0">
                    <mxGeometry x="-0.7372" y="2" relative="1" as="geometry">
                        <mxPoint x="75" y="37" as="offset"/>
                    </mxGeometry>
                </mxCell>
                <mxCell id="206" value="" style="endArrow=classic;html=1;fontSize=16;exitX=1.071;exitY=0.026;exitDx=0;exitDy=0;exitPerimeter=0;entryX=0;entryY=0.025;entryDx=0;entryDy=0;entryPerimeter=0;" parent="1" source="169" target="170" edge="1">
                    <mxGeometry width="50" height="50" relative="1" as="geometry">
                        <mxPoint x="2880" y="105" as="sourcePoint"/>
                        <mxPoint x="2930" y="55.00000000000001" as="targetPoint"/>
                    </mxGeometry>
                </mxCell>
                <mxCell id="207" value="RegWrite 1-bit" style="edgeLabel;html=1;align=center;verticalAlign=middle;resizable=0;points=[];fontSize=16;" parent="206" vertex="1" connectable="0">
                    <mxGeometry x="0.6866" y="1" relative="1" as="geometry">
                        <mxPoint x="24" as="offset"/>
                    </mxGeometry>
                </mxCell>
                <mxCell id="214" value="" style="endArrow=classic;html=1;fontSize=16;exitX=1.019;exitY=0.032;exitDx=0;exitDy=0;exitPerimeter=0;entryX=0.5;entryY=1;entryDx=0;entryDy=0;" parent="1" source="170" target="150" edge="1">
                    <mxGeometry width="50" height="50" relative="1" as="geometry">
                        <mxPoint x="2060" y="180" as="sourcePoint"/>
                        <mxPoint x="2110" y="130" as="targetPoint"/>
                        <Array as="points">
                            <mxPoint x="3560" y="-131"/>
                            <mxPoint x="3560" y="740"/>
                            <mxPoint x="3460" y="740"/>
                            <mxPoint x="2420" y="740"/>
                            <mxPoint x="590" y="740"/>
                        </Array>
                    </mxGeometry>
                </mxCell>
                <mxCell id="215" value="RegWrite 1-bit" style="edgeLabel;html=1;align=center;verticalAlign=middle;resizable=0;points=[];fontSize=16;" parent="214" vertex="1" connectable="0">
                    <mxGeometry x="-0.5127" relative="1" as="geometry">
                        <mxPoint y="86" as="offset"/>
                    </mxGeometry>
                </mxCell>
                <mxCell id="216" value="" style="endArrow=classic;html=1;fontSize=16;exitX=1.034;exitY=0.859;exitDx=0;exitDy=0;exitPerimeter=0;entryX=0.842;entryY=1.076;entryDx=0;entryDy=0;entryPerimeter=0;" parent="1" source="170" target="150" edge="1">
                    <mxGeometry width="50" height="50" relative="1" as="geometry">
                        <mxPoint x="1770" y="380" as="sourcePoint"/>
                        <mxPoint x="634.800048828125" y="340" as="targetPoint"/>
                        <Array as="points">
                            <mxPoint x="3260" y="360"/>
                            <mxPoint x="3260" y="640"/>
                            <mxPoint x="2730" y="650"/>
                            <mxPoint x="2390" y="650"/>
                            <mxPoint x="631" y="650"/>
                        </Array>
                    </mxGeometry>
                </mxCell>
                <mxCell id="217" value="RegDst Address 3-bits" style="edgeLabel;html=1;align=center;verticalAlign=middle;resizable=0;points=[];fontSize=16;" parent="216" vertex="1" connectable="0">
                    <mxGeometry x="-0.6077" y="3" relative="1" as="geometry">
                        <mxPoint as="offset"/>
                    </mxGeometry>
                </mxCell>
                <mxCell id="218" value="" style="endArrow=classic;html=1;fontSize=16;exitX=1.023;exitY=0.718;exitDx=0;exitDy=0;exitPerimeter=0;entryX=0.032;entryY=0.711;entryDx=0;entryDy=0;entryPerimeter=0;" parent="1" source="169" target="170" edge="1">
                    <mxGeometry width="50" height="50" relative="1" as="geometry">
                        <mxPoint x="2310" y="245" as="sourcePoint"/>
                        <mxPoint x="2360" y="195" as="targetPoint"/>
                    </mxGeometry>
                </mxCell>
                <mxCell id="222" value="" style="endArrow=classic;html=1;fontSize=16;exitX=1.027;exitY=0.116;exitDx=0;exitDy=0;exitPerimeter=0;entryX=0.25;entryY=1;entryDx=0;entryDy=0;" parent="1" source="5" target="32" edge="1">
                    <mxGeometry width="50" height="50" relative="1" as="geometry">
                        <mxPoint x="170" y="10" as="sourcePoint"/>
                        <mxPoint x="220" y="-40" as="targetPoint"/>
                        <Array as="points">
                            <mxPoint x="300" y="35"/>
                            <mxPoint x="300" y="-390"/>
                            <mxPoint x="-590" y="-390"/>
                            <mxPoint x="-590" y="-2"/>
                        </Array>
                    </mxGeometry>
                </mxCell>
                <mxCell id="223" value="Next Pc 32-bits" style="edgeLabel;html=1;align=center;verticalAlign=middle;resizable=0;points=[];fontSize=16;" parent="222" vertex="1" connectable="0">
                    <mxGeometry x="-0.0668" relative="1" as="geometry">
                        <mxPoint x="-1" as="offset"/>
                    </mxGeometry>
                </mxCell>
                <mxCell id="224" value="" style="endArrow=classic;html=1;fontSize=16;entryX=0;entryY=0.58;entryDx=0;entryDy=0;entryPerimeter=0;" parent="1" target="169" edge="1">
                    <mxGeometry width="50" height="50" relative="1" as="geometry">
                        <mxPoint x="1860" y="250" as="sourcePoint"/>
                        <mxPoint x="1280" y="190" as="targetPoint"/>
                        <Array as="points">
                            <mxPoint x="1860" y="195"/>
                        </Array>
                    </mxGeometry>
                </mxCell>
                <mxCell id="225" value="" style="endArrow=classic;html=1;fontSize=16;exitX=0.998;exitY=0.589;exitDx=0;exitDy=0;exitPerimeter=0;entryX=-0.021;entryY=0.855;entryDx=0;entryDy=0;entryPerimeter=0;" parent="1" source="169" edge="1" target="183">
                    <mxGeometry width="50" height="50" relative="1" as="geometry">
                        <mxPoint x="2570" y="235" as="sourcePoint"/>
                        <mxPoint x="2830" y="195" as="targetPoint"/>
                    </mxGeometry>
                </mxCell>
                <mxCell id="226" value="RegSrc 16-bits" style="edgeLabel;html=1;align=center;verticalAlign=middle;resizable=0;points=[];fontSize=16;" parent="225" vertex="1" connectable="0">
                    <mxGeometry x="-0.5643" y="-2" relative="1" as="geometry">
                        <mxPoint x="167" y="-1" as="offset"/>
                    </mxGeometry>
                </mxCell>
                <mxCell id="229" style="edgeStyle=none;html=1;entryX=1;entryY=0.5;entryDx=0;entryDy=0;exitX=1;exitY=0.857;exitDx=0;exitDy=0;exitPerimeter=0;" parent="1" source="169" target="227" edge="1">
                    <mxGeometry relative="1" as="geometry">
                        <mxPoint x="2350" y="509.9999999999998" as="targetPoint"/>
                        <mxPoint x="2590" y="350" as="sourcePoint"/>
                        <Array as="points">
                            <mxPoint x="2590" y="360"/>
                            <mxPoint x="2590" y="498.76"/>
                            <mxPoint x="2590" y="509.76"/>
                        </Array>
                    </mxGeometry>
                </mxCell>
                <mxCell id="230" value="&lt;span style=&quot;font-size: 16px&quot;&gt;RegDst Address 3-bits reslut Alu&lt;/span&gt;" style="edgeLabel;html=1;align=center;verticalAlign=middle;resizable=0;points=[];" parent="229" vertex="1" connectable="0">
                    <mxGeometry x="0.2409" y="-2" relative="1" as="geometry">
                        <mxPoint y="-14" as="offset"/>
                    </mxGeometry>
                </mxCell>
                <mxCell id="243" style="edgeStyle=none;html=1;exitX=0;exitY=0.25;exitDx=0;exitDy=0;entryX=1;entryY=0.5;entryDx=0;entryDy=0;" parent="1" source="227" target="235" edge="1">
                    <mxGeometry relative="1" as="geometry">
                        <Array as="points">
                            <mxPoint x="1740" y="505"/>
                            <mxPoint x="1730" y="500"/>
                        </Array>
                    </mxGeometry>
                </mxCell>
                <mxCell id="244" value="&lt;font style=&quot;font-size: 13px&quot;&gt;if src(1) == dest from ALu or memory&lt;/font&gt;" style="edgeLabel;html=1;align=center;verticalAlign=middle;resizable=0;points=[];" parent="243" vertex="1" connectable="0">
                    <mxGeometry x="-0.7575" y="-4" relative="1" as="geometry">
                        <mxPoint x="-64" as="offset"/>
                    </mxGeometry>
                </mxCell>
                <mxCell id="227" value="forwardingUnit" style="rounded=0;whiteSpace=wrap;html=1;" parent="1" vertex="1">
                    <mxGeometry x="1960" y="490" width="120" height="60" as="geometry"/>
                </mxCell>
                <mxCell id="245" style="edgeStyle=none;html=1;exitX=0.5;exitY=0;exitDx=0;exitDy=0;entryX=0;entryY=0.25;entryDx=0;entryDy=0;" parent="1" source="235" target="74" edge="1">
                    <mxGeometry relative="1" as="geometry"/>
                </mxCell>
                <mxCell id="235" value="MUX" style="shape=trapezoid;perimeter=trapezoidPerimeter;whiteSpace=wrap;html=1;fixedSize=1;fontSize=16;direction=south;" parent="1" vertex="1">
                    <mxGeometry x="1700" y="220" width="60" height="60" as="geometry"/>
                </mxCell>
                <mxCell id="239" value="" style="endArrow=classic;html=1;entryX=1;entryY=0.75;entryDx=0;entryDy=0;" parent="1" target="227" edge="1">
                    <mxGeometry width="50" height="50" relative="1" as="geometry">
                        <mxPoint x="3260" y="530" as="sourcePoint"/>
                        <mxPoint x="2920" y="500" as="targetPoint"/>
                    </mxGeometry>
                </mxCell>
                <mxCell id="240" value="&lt;span style=&quot;font-size: 16px&quot;&gt;RegDst Address 3-bits reslut memory&lt;/span&gt;" style="edgeLabel;html=1;align=center;verticalAlign=middle;resizable=0;points=[];" parent="239" vertex="1" connectable="0">
                    <mxGeometry x="-0.6656" y="-3" relative="1" as="geometry">
                        <mxPoint as="offset"/>
                    </mxGeometry>
                </mxCell>
                <mxCell id="242" value="" style="endArrow=classic;html=1;entryX=0.75;entryY=1;entryDx=0;entryDy=0;" parent="1" target="235" edge="1">
                    <mxGeometry width="50" height="50" relative="1" as="geometry">
                        <mxPoint x="2650" y="280" as="sourcePoint"/>
                        <mxPoint x="1940" y="505" as="targetPoint"/>
                        <Array as="points">
                            <mxPoint x="2660" y="580"/>
                            <mxPoint x="1920" y="580"/>
                            <mxPoint x="1640" y="580"/>
                            <mxPoint x="1640" y="265"/>
                        </Array>
                    </mxGeometry>
                </mxCell>
                <mxCell id="248" value="" style="endArrow=classic;html=1;entryX=0.5;entryY=1;entryDx=0;entryDy=0;" parent="1" target="235" edge="1">
                    <mxGeometry width="50" height="50" relative="1" as="geometry">
                        <mxPoint x="1570" y="760" as="sourcePoint"/>
                        <mxPoint x="1570" y="670" as="targetPoint"/>
                        <Array as="points">
                            <mxPoint x="1570" y="250"/>
                        </Array>
                    </mxGeometry>
                </mxCell>
                <mxCell id="249" value="&lt;span style=&quot;font-size: 16px&quot;&gt;Data to write in RegFile 16-bits&lt;/span&gt;" style="edgeLabel;html=1;align=center;verticalAlign=middle;resizable=0;points=[];" parent="248" vertex="1" connectable="0">
                    <mxGeometry x="-0.5422" y="-1" relative="1" as="geometry">
                        <mxPoint as="offset"/>
                    </mxGeometry>
                </mxCell>
                <mxCell id="250" value="MUX" style="shape=trapezoid;perimeter=trapezoidPerimeter;whiteSpace=wrap;html=1;fixedSize=1;fontSize=16;direction=south;" parent="1" vertex="1">
                    <mxGeometry x="1380" y="265" width="70" height="75" as="geometry"/>
                </mxCell>
                <mxCell id="251" value="" style="edgeStyle=none;html=1;fontSize=16;entryX=0.25;entryY=1;entryDx=0;entryDy=0;endArrow=none;" parent="1" source="83" target="250" edge="1">
                    <mxGeometry relative="1" as="geometry">
                        <mxPoint x="2020" y="308.75" as="targetPoint"/>
                        <mxPoint x="1230" y="302.7651515151515" as="sourcePoint"/>
                    </mxGeometry>
                </mxCell>
                <mxCell id="252" value="" style="endArrow=classic;html=1;entryX=0.5;entryY=1;entryDx=0;entryDy=0;" parent="1" target="250" edge="1">
                    <mxGeometry width="50" height="50" relative="1" as="geometry">
                        <mxPoint x="1570" y="350" as="sourcePoint"/>
                        <mxPoint x="1620" y="330" as="targetPoint"/>
                        <Array as="points">
                            <mxPoint x="1350" y="350"/>
                            <mxPoint x="1350" y="303"/>
                        </Array>
                    </mxGeometry>
                </mxCell>
                <mxCell id="254" value="" style="endArrow=classic;html=1;entryX=0.75;entryY=1;entryDx=0;entryDy=0;" parent="1" target="250" edge="1">
                    <mxGeometry width="50" height="50" relative="1" as="geometry">
                        <mxPoint x="1640" y="520" as="sourcePoint"/>
                        <mxPoint x="1620" y="410" as="targetPoint"/>
                        <Array as="points">
                            <mxPoint x="1360" y="520"/>
                            <mxPoint x="1360" y="321"/>
                        </Array>
                    </mxGeometry>
                </mxCell>
                <mxCell id="259" value="" style="endArrow=classic;html=1;entryX=1;entryY=1;entryDx=0;entryDy=0;" parent="1" target="227" edge="1">
                    <mxGeometry width="50" height="50" relative="1" as="geometry">
                        <mxPoint x="2200" y="360" as="sourcePoint"/>
                        <mxPoint x="2200" y="550" as="targetPoint"/>
                        <Array as="points">
                            <mxPoint x="2200" y="550"/>
                        </Array>
                    </mxGeometry>
                </mxCell>
                <mxCell id="261" value="" style="endArrow=classic;html=1;exitX=0;exitY=0.75;exitDx=0;exitDy=0;entryX=1;entryY=0.5;entryDx=0;entryDy=0;" parent="1" source="227" target="250" edge="1">
                    <mxGeometry width="50" height="50" relative="1" as="geometry">
                        <mxPoint x="1860" y="370" as="sourcePoint"/>
                        <mxPoint x="1910" y="320" as="targetPoint"/>
                        <Array as="points">
                            <mxPoint x="1415" y="535"/>
                        </Array>
                    </mxGeometry>
                </mxCell>
                <mxCell id="262" value="&lt;font style=&quot;font-size: 13px&quot;&gt;if dest(1) == dest from ALu or memory&lt;/font&gt;" style="edgeLabel;html=1;align=center;verticalAlign=middle;resizable=0;points=[];" parent="261" vertex="1" connectable="0">
                    <mxGeometry x="-0.2995" y="2" relative="1" as="geometry">
                        <mxPoint x="63" as="offset"/>
                    </mxGeometry>
                </mxCell>
                <mxCell id="274" style="edgeStyle=none;html=1;entryX=0.365;entryY=0.971;entryDx=0;entryDy=0;entryPerimeter=0;fontSize=13;" edge="1" parent="1" source="263" target="270">
                    <mxGeometry relative="1" as="geometry">
                        <Array as="points">
                            <mxPoint x="2770" y="48"/>
                        </Array>
                    </mxGeometry>
                </mxCell>
                <mxCell id="275" value="&lt;font style=&quot;font-size: 15px&quot;&gt;Address 32-bits&lt;/font&gt;" style="edgeLabel;html=1;align=center;verticalAlign=middle;resizable=0;points=[];fontSize=13;" vertex="1" connectable="0" parent="274">
                    <mxGeometry x="0.2677" y="1" relative="1" as="geometry">
                        <mxPoint x="-1" y="-29" as="offset"/>
                    </mxGeometry>
                </mxCell>
                <mxCell id="263" value="&lt;font style=&quot;font-size: 24px&quot;&gt;SP&lt;/font&gt;" style="rounded=0;whiteSpace=wrap;html=1;" parent="1" vertex="1">
                    <mxGeometry x="2710" y="-290" width="120" height="60" as="geometry"/>
                </mxCell>
                <mxCell id="271" style="edgeStyle=none;html=1;entryX=0.75;entryY=1;entryDx=0;entryDy=0;fontSize=13;" edge="1" parent="1" source="265" target="270">
                    <mxGeometry relative="1" as="geometry"/>
                </mxCell>
                <mxCell id="265" value="&lt;font style=&quot;font-size: 14px&quot;&gt;Extend zeros- 32 bit&lt;/font&gt;" style="shape=step;perimeter=stepPerimeter;whiteSpace=wrap;html=1;fixedSize=1;direction=east;rotation=0;" parent="1" vertex="1">
                    <mxGeometry x="2590" y="45" width="160" height="80" as="geometry"/>
                </mxCell>
                <mxCell id="268" value="" style="endArrow=classic;html=1;fontSize=18;entryX=0;entryY=0.5;entryDx=0;entryDy=0;" parent="1" target="265" edge="1">
                    <mxGeometry width="50" height="50" relative="1" as="geometry">
                        <mxPoint x="2560" y="280" as="sourcePoint"/>
                        <mxPoint x="2750" y="90" as="targetPoint"/>
                        <Array as="points">
                            <mxPoint x="2560" y="90"/>
                        </Array>
                    </mxGeometry>
                </mxCell>
                <mxCell id="273" style="edgeStyle=none;html=1;fontSize=13;" edge="1" parent="1" source="270">
                    <mxGeometry relative="1" as="geometry">
                        <mxPoint x="2910" y="60" as="targetPoint"/>
                    </mxGeometry>
                </mxCell>
                <mxCell id="270" value="MUX" style="shape=trapezoid;perimeter=trapezoidPerimeter;whiteSpace=wrap;html=1;fixedSize=1;fontSize=16;direction=south;" vertex="1" parent="1">
                    <mxGeometry x="2820" y="15" width="60" height="90" as="geometry"/>
                </mxCell>
                <mxCell id="277" style="edgeStyle=none;html=1;entryX=0;entryY=0.5;entryDx=0;entryDy=0;fontSize=14;" edge="1" parent="1" source="276" target="263">
                    <mxGeometry relative="1" as="geometry"/>
                </mxCell>
                <mxCell id="276" value="MUX" style="shape=trapezoid;perimeter=trapezoidPerimeter;whiteSpace=wrap;html=1;fixedSize=1;fontSize=16;direction=south;" vertex="1" parent="1">
                    <mxGeometry x="2590" y="-305" width="60" height="90" as="geometry"/>
                </mxCell>
                <mxCell id="280" value="" style="endArrow=classic;html=1;fontSize=14;exitX=1;exitY=0.5;exitDx=0;exitDy=0;entryX=0.25;entryY=1;entryDx=0;entryDy=0;" edge="1" parent="1" source="263" target="276">
                    <mxGeometry width="50" height="50" relative="1" as="geometry">
                        <mxPoint x="2760" y="-50" as="sourcePoint"/>
                        <mxPoint x="2810" y="-100" as="targetPoint"/>
                        <Array as="points">
                            <mxPoint x="2920" y="-260"/>
                            <mxPoint x="2920" y="-360"/>
                            <mxPoint x="2540" y="-360"/>
                            <mxPoint x="2540" y="-282"/>
                        </Array>
                    </mxGeometry>
                </mxCell>
                <mxCell id="282" style="edgeStyle=none;html=1;entryX=0.5;entryY=1;entryDx=0;entryDy=0;fontSize=14;" edge="1" parent="1" source="281" target="276">
                    <mxGeometry relative="1" as="geometry">
                        <Array as="points">
                            <mxPoint x="3220" y="-320"/>
                            <mxPoint x="3220" y="-440"/>
                            <mxPoint x="2480" y="-430"/>
                            <mxPoint x="2480" y="-260"/>
                        </Array>
                    </mxGeometry>
                </mxCell>
                <mxCell id="281" value="&lt;font style=&quot;font-size: 16px&quot;&gt;Adder&lt;/font&gt;" style="triangle;whiteSpace=wrap;html=1;fontSize=14;" vertex="1" parent="1">
                    <mxGeometry x="3040" y="-360" width="70" height="80" as="geometry"/>
                </mxCell>
                <mxCell id="284" style="edgeStyle=none;html=1;entryX=0.75;entryY=1;entryDx=0;entryDy=0;fontSize=14;" edge="1" parent="1" source="283" target="276">
                    <mxGeometry relative="1" as="geometry">
                        <Array as="points">
                            <mxPoint x="3220" y="-230"/>
                            <mxPoint x="3220" y="-180"/>
                            <mxPoint x="2530" y="-180"/>
                            <mxPoint x="2530" y="-237"/>
                        </Array>
                    </mxGeometry>
                </mxCell>
                <mxCell id="283" value="SUB" style="triangle;whiteSpace=wrap;html=1;fontSize=14;" vertex="1" parent="1">
                    <mxGeometry x="3040" y="-270" width="70" height="80" as="geometry"/>
                </mxCell>
                <mxCell id="285" value="" style="endArrow=classic;html=1;fontSize=16;entryX=0;entryY=0.5;entryDx=0;entryDy=0;" edge="1" parent="1" target="281">
                    <mxGeometry width="50" height="50" relative="1" as="geometry">
                        <mxPoint x="2910" y="-260" as="sourcePoint"/>
                        <mxPoint x="2990" y="-310" as="targetPoint"/>
                    </mxGeometry>
                </mxCell>
                <mxCell id="286" value="" style="endArrow=classic;html=1;fontSize=16;entryX=0;entryY=0.5;entryDx=0;entryDy=0;" edge="1" parent="1" target="283">
                    <mxGeometry width="50" height="50" relative="1" as="geometry">
                        <mxPoint x="2910" y="-260" as="sourcePoint"/>
                        <mxPoint x="3010" y="-260" as="targetPoint"/>
                    </mxGeometry>
                </mxCell>
                <mxCell id="288" style="edgeStyle=none;html=1;fontSize=16;entryX=-0.072;entryY=0.118;entryDx=0;entryDy=0;entryPerimeter=0;" edge="1" parent="1">
                    <mxGeometry relative="1" as="geometry">
                        <mxPoint x="810" y="45.15000000000032" as="targetPoint"/>
                        <mxPoint x="643.5999999999999" y="44.995653710247325" as="sourcePoint"/>
                    </mxGeometry>
                </mxCell>
                <mxCell id="289" value="SPOrALUres 1-bit" style="edgeLabel;html=1;align=center;verticalAlign=middle;resizable=0;points=[];fontSize=16;" vertex="1" connectable="0" parent="288">
                    <mxGeometry x="-0.3156" relative="1" as="geometry">
                        <mxPoint x="23" y="1" as="offset"/>
                    </mxGeometry>
                </mxCell>
                <mxCell id="290" value="" style="endArrow=classic;html=1;fontSize=16;exitX=1.057;exitY=0.338;exitDx=0;exitDy=0;exitPerimeter=0;entryX=-0.041;entryY=0.319;entryDx=0;entryDy=0;entryPerimeter=0;" edge="1" parent="1" source="43" target="169">
                    <mxGeometry width="50" height="50" relative="1" as="geometry">
                        <mxPoint x="720" y="130" as="sourcePoint"/>
                        <mxPoint x="770" y="80" as="targetPoint"/>
                    </mxGeometry>
                </mxCell>
                <mxCell id="291" value="SPOrALUres 1-bit" style="edgeLabel;html=1;align=center;verticalAlign=middle;resizable=0;points=[];fontSize=16;" vertex="1" connectable="0" parent="290">
                    <mxGeometry x="0.838" y="-2" relative="1" as="geometry">
                        <mxPoint x="-1" as="offset"/>
                    </mxGeometry>
                </mxCell>
                <mxCell id="293" value="" style="endArrow=classic;html=1;fontSize=16;entryX=0;entryY=0.5;entryDx=0;entryDy=0;" edge="1" parent="1" target="270">
                    <mxGeometry width="50" height="50" relative="1" as="geometry">
                        <mxPoint x="2530" y="30" as="sourcePoint"/>
                        <mxPoint x="2850" y="-20" as="targetPoint"/>
                        <Array as="points">
                            <mxPoint x="2560" y="-20"/>
                            <mxPoint x="2850" y="-20"/>
                        </Array>
                    </mxGeometry>
                </mxCell>
                <mxCell id="294" value="SPOrALUres 1-bit" style="edgeLabel;html=1;align=center;verticalAlign=middle;resizable=0;points=[];fontSize=16;" vertex="1" connectable="0" parent="293">
                    <mxGeometry x="-0.2516" y="-2" relative="1" as="geometry">
                        <mxPoint x="-9" y="-2" as="offset"/>
                    </mxGeometry>
                </mxCell>
                <mxCell id="295" value="" style="endArrow=classic;html=1;fontSize=16;exitX=0.895;exitY=-0.003;exitDx=0;exitDy=0;exitPerimeter=0;entryX=-0.04;entryY=0.017;entryDx=0;entryDy=0;entryPerimeter=0;" edge="1" parent="1" source="62" target="43">
                    <mxGeometry width="50" height="50" relative="1" as="geometry">
                        <mxPoint x="1010" y="-70" as="sourcePoint"/>
                        <mxPoint x="1060" y="-120" as="targetPoint"/>
                        <Array as="points">
                            <mxPoint x="627" y="-150"/>
                        </Array>
                    </mxGeometry>
                </mxCell>
                <mxCell id="296" value="SPOpeartion 1-bit" style="edgeLabel;html=1;align=center;verticalAlign=middle;resizable=0;points=[];fontSize=16;" vertex="1" connectable="0" parent="295">
                    <mxGeometry x="-0.3329" y="-2" relative="1" as="geometry">
                        <mxPoint x="39" y="-2" as="offset"/>
                    </mxGeometry>
                </mxCell>
                <mxCell id="297" value="" style="endArrow=classic;html=1;fontSize=16;exitX=1.057;exitY=0.022;exitDx=0;exitDy=0;exitPerimeter=0;entryX=0;entryY=0;entryDx=0;entryDy=0;" edge="1" parent="1" source="43" target="169">
                    <mxGeometry width="50" height="50" relative="1" as="geometry">
                        <mxPoint x="910" y="-140" as="sourcePoint"/>
                        <mxPoint x="2451.1429268973216" y="-160" as="targetPoint"/>
                    </mxGeometry>
                </mxCell>
                <mxCell id="298" value="SPOpeartion 1-bit" style="edgeLabel;html=1;align=center;verticalAlign=middle;resizable=0;points=[];fontSize=16;" vertex="1" connectable="0" parent="297">
                    <mxGeometry x="0.3821" y="-1" relative="1" as="geometry">
                        <mxPoint x="-7" y="-2" as="offset"/>
                    </mxGeometry>
                </mxCell>
                <mxCell id="300" value="" style="endArrow=classic;html=1;fontSize=16;entryX=1;entryY=0.25;entryDx=0;entryDy=0;exitX=1.02;exitY=0.019;exitDx=0;exitDy=0;exitPerimeter=0;" edge="1" parent="1" source="169" target="276">
                    <mxGeometry width="50" height="50" relative="1" as="geometry">
                        <mxPoint x="2590" y="-160" as="sourcePoint"/>
                        <mxPoint x="2640" y="-210" as="targetPoint"/>
                        <Array as="points">
                            <mxPoint x="2631" y="-140"/>
                        </Array>
                    </mxGeometry>
                </mxCell>
                <mxCell id="301" value="SPOpeartion 1-bit" style="edgeLabel;html=1;align=center;verticalAlign=middle;resizable=0;points=[];fontSize=16;" vertex="1" connectable="0" parent="300">
                    <mxGeometry x="0.7469" y="-3" relative="1" as="geometry">
                        <mxPoint y="45" as="offset"/>
                    </mxGeometry>
                </mxCell>
            </root>
        </mxGraphModel>
    </diagram>
</mxfile>